<svg version="1" xmlns="http://www.w3.org/2000/svg" width="933.333" height="933.333" viewBox="0 0 700.000000 700.000000"><path d="M0 350v321l29.2-.2 29.2-.3v-29l.1-29h58l.2 27c0 14.9.1 28 .2 29.2l.1 2.3h58V554.1h350V671h28.9c26.7 0 28.9-.1 29.2-1.8.3-.9.4-13.9.3-28.9 0-18.4.3-27.3 1-27.6 1-.3 53.5-.1 56.2.2.7.1 1 8.2 1 26.8-.1 14.8 0 27.8.3 29l.3 2.3H700V29l-29.2.2-29.2.3v28.7c0 19.9-.3 28.8-1 28.9-2.8.3-55.2.5-56.2.2-.7-.3-1-9-1-28.1.1-15.2 0-28.3-.2-29-.3-.9-7.1-1.2-29.3-1.2H525v116.8H175V29h-58l-.1 2.7c0 1.6-.1 13.8-.1 27.3.1 13.5-.1 25.4-.3 26.5-.4 2-1.1 2-27.7 1.9-15-.1-28-.2-28.9-.3-1.4-.1-1.6-3.3-1.5-28.9V29.5l-29.2-.3L0 29v321zm113.6-204h3v29l.1 29-7.1.1c-8 .1-46 0-49.2 0-2-.1-2-.5-2-28.9v-28.7l2.5-.5c2-.4 16.8-.4 52.7 0zm517.5-.1l10.5.1v29l.1 29-4.1.1c-21.4.3-52.9 0-53.4-.6-.4-.4-.7-13.3-.7-28.8l-.1-28.2 9.1-.5c4.9-.3 13.3-.4 18.5-.3 5.2.1 14.2.2 20.1.2zM525 350v116.6l-175 .1H175V233.4h350V350zm-408.4-59.5c0 15.4-.1 28.6-.4 29.2-.3 1-7.1 1.3-29.1 1.3H58.4l.1-29.3c.1-16 .3-29.2.3-29.2h57.7l.1 28zm523.5-27.6c1.4.1 1.5 3.5 1.5 29.1v29h-58.3l.2-29.3c.1-16 .3-29.2.4-29.2 12.4 0 55.1.3 56.2.4zM116.7 408c0 19.9-.4 29-1.1 29.3-1 .3-55.2.1-56.7-.2-.3 0-.6-13.2-.6-29.1l.1-29h58.3v29zm524.9-.1c.1 25.6-.1 29-1.5 29.3-.9.2-14 .4-29.1.3h-27.5l-.1-29.3-.1-29.2h58.3v28.9zm-526.5 88c1.4.1 1.6 3.4 1.6 29.1v29l-11.1.1c-10.6 0-37.7 0-44.2-.1h-3v-57.9l2.5-.3c2-.2 47.2-.1 54.2.1zm523.5 0l3.1.1-.1 29v29h-11c-17.3.1-31.4.1-39.7.1l-7.5-.1v-28.7l.1-28.7 2.3-.6c1.8-.4 32.1-.4 52.8-.1z"/></svg>